<svg id="Capa_1" data-name="Capa 1" xmlns="http://www.w3.org/2000/svg" xmlns:xlink="http://www.w3.org/1999/xlink" viewBox="0 0 768 768"><defs><style>.cls-1{fill:#24b8d0;}.cls-2{fill:url(#Degradado_sin_nombre_62);}.cls-3{fill:url(#Degradado_sin_nombre_62-2);}.cls-4{fill:url(#Degradado_sin_nombre_3);}.cls-5{fill:url(#Degradado_sin_nombre_61);}.cls-6{fill:#fff;}.cls-7{fill:#ef8128;}.cls-8{fill:#e84276;}.cls-9{fill:url(#Degradado_sin_nombre_5);}</style><linearGradient id="Degradado_sin_nombre_62" x1="559.5" y1="566.23" x2="559.83" y2="571.3" gradientUnits="userSpaceOnUse"><stop offset="0" stop-color="#24b8d0"/><stop offset="0.58" stop-color="#f3974c"/><stop offset="1" stop-color="#e84276"/></linearGradient><linearGradient id="Degradado_sin_nombre_62-2" x1="441.55" y1="189.92" x2="471.75" y2="653.54" xlink:href="#Degradado_sin_nombre_62"/><linearGradient id="Degradado_sin_nombre_3" x1="617.29" y1="294.18" x2="610.8" y2="657.48" gradientUnits="userSpaceOnUse"><stop offset="0.41" stop-color="#24b8d0"/><stop offset="0.43" stop-color="#39b5c2"/><stop offset="0.48" stop-color="#71ac9f"/><stop offset="0.53" stop-color="#a0a481"/><stop offset="0.58" stop-color="#c49f6a"/><stop offset="0.63" stop-color="#de9a5a"/><stop offset="0.67" stop-color="#ee984f"/><stop offset="0.7" stop-color="#f3974c"/><stop offset="0.87" stop-color="#e84276"/></linearGradient><linearGradient id="Degradado_sin_nombre_61" x1="661.97" y1="129.73" x2="655.22" y2="507.54" gradientUnits="userSpaceOnUse"><stop offset="0.04" stop-color="#24b8d0"/><stop offset="0.18" stop-color="#f3974c"/><stop offset="0.34" stop-color="#eb6770"/><stop offset="0.43" stop-color="#e84276"/></linearGradient><linearGradient id="Degradado_sin_nombre_5" x1="104.03" y1="221.86" x2="247.79" y2="355.35" gradientUnits="userSpaceOnUse"><stop offset="0" stop-color="#24b8d0"/><stop offset="0.1" stop-color="#55b0b1"/><stop offset="0.22" stop-color="#8da78d"/><stop offset="0.34" stop-color="#b9a071"/><stop offset="0.44" stop-color="#d99b5d"/><stop offset="0.52" stop-color="#ec9850"/><stop offset="0.58" stop-color="#f3974c"/><stop offset="0.68" stop-color="#f3934e"/><stop offset="0.76" stop-color="#f18854"/><stop offset="0.85" stop-color="#ee745d"/><stop offset="0.94" stop-color="#eb596b"/><stop offset="1" stop-color="#e84276"/></linearGradient></defs><path class="cls-1" d="M230.53,535.37a4.88,4.88,0,1,1,4.88,4.88,4.88,4.88,0,0,1-4.88-4.88"/><path class="cls-1" d="M161,535.37a4.87,4.87,0,1,1,4.87,4.88,4.87,4.87,0,0,1-4.87-4.88"/><path class="cls-1" d="M161,465.55a4.87,4.87,0,1,1,4.87,4.88,4.87,4.87,0,0,1-4.87-4.88"/><path class="cls-1" d="M161,395.73a4.87,4.87,0,1,1,4.87,4.87,4.87,4.87,0,0,1-4.87-4.87"/><path class="cls-1" d="M647.69,325.91a4.87,4.87,0,1,1,4.87,4.87,4.88,4.88,0,0,1-4.87-4.87"/><path class="cls-1" d="M647.69,256.09a4.87,4.87,0,1,1,4.87,4.87,4.87,4.87,0,0,1-4.87-4.87"/><path class="cls-1" d="M578.16,256.09A4.88,4.88,0,1,1,583,261a4.87,4.87,0,0,1-4.87-4.87"/><path class="cls-1" d="M300.06,256.09a4.87,4.87,0,1,1,4.87,4.87,4.87,4.87,0,0,1-4.87-4.87"/><path class="cls-1" d="M647.69,186.26a4.87,4.87,0,1,1,4.87,4.88,4.87,4.87,0,0,1-4.87-4.88"/><path class="cls-1" d="M578.16,186.26a4.88,4.88,0,1,1,4.87,4.88,4.87,4.87,0,0,1-4.87-4.88"/><path class="cls-1" d="M369.59,186.26a4.87,4.87,0,1,1,4.87,4.88,4.87,4.87,0,0,1-4.87-4.88"/><path class="cls-1" d="M300.06,186.26a4.87,4.87,0,1,1,4.87,4.88,4.87,4.87,0,0,1-4.87-4.88"/><path class="cls-1" d="M230.53,186.26a4.88,4.88,0,1,1,4.88,4.88,4.88,4.88,0,0,1-4.88-4.88"/><path class="cls-1" d="M161,186.26a4.87,4.87,0,1,1,4.87,4.88,4.87,4.87,0,0,1-4.87-4.88"/><path class="cls-2" d="M556.62,566.82a42.16,42.16,0,0,0-1.22,4.2q4.29-2.26,8.52-4.64C561.23,566,559.29,565.2,556.62,566.82Z"/><path class="cls-3" d="M682.56,389.87c-13-31.24-48.81-41.17-72.06-63.79-27.72-27-32.78-65.86-38.16-102.57-3.88-26.4-15-50.57-40.55-64.32-26-14-57.21-7-85.29,5q-9.51,4.06-18.87,8.74c-133.79,66.79-238.83,222.56-185.76,350,13.12,31.52,36.72,59,68.82,75a156,156,0,0,0,31.88,11.61c-1.67-15.38,23.51-53.81,46.51-109.15,3-7.14,2.13-21.95,1.42-30.09-.39-4.48-.57-10.52-1.77-14.87-1.65-5.95-2.42-15-7.44-16.28C370.93,436.55,357,443,347,443.52c-5.29.26-.41.37-9.22-.53-5.64-.57-11.41-.27-17-6.42-3.31-3.67-3.31-6.61-2.66-11.47.47-3.48,2-6.79,0-9.84-1.6-2.35-4.16-3.25-5.95-4.86a3.43,3.43,0,0,1-1.11-1.24,5.66,5.66,0,0,1-.82-2.1,6,6,0,0,1,1.1-5,5.11,5.11,0,0,1,.54-.75,9.13,9.13,0,0,1,1.38-1.09,34.36,34.36,0,0,1,3.21-2.06l-.19-.08L316,398c-2.28-.54-4.78-2.09-5.6-4a6.75,6.75,0,0,1-.41-3.19,5.39,5.39,0,0,1,.74-2.84,3.64,3.64,0,0,1,1.05-1.28c1.25-1.71,5.83-8.38,2.45-10.73-1.46-1-6.88-3.14-8.46-4a27.23,27.23,0,0,1-3.38-2c-4-2.35-6.34-6.1-3.06-10,4.16-4.95,11.84-14.52,16.54-19.28,2.37-2.39,5.67-5.88,7-9a17.51,17.51,0,0,0,1.4-8.67,66,66,0,0,0-1.57-9.61c-1-4.64-.77-7.76-.1-12.44a83,83,0,0,1,8.61-27.73c2.18-4.09,3.36-9,6.46-12.67,1.62-1.91,4.33-6.07,6.28-9-.27-.13,1.74-2.34,2.25-3.18l1.94-1.76c17.34-16.29,26.71-19.73,51.38-26,28.81-7.34,71.38-3,95.86,11.92,8.45,5.15,11.11,7.51,17.42,15.33,7.25,9,13.45,20.34,23.09,27.07,5.29,3.69,17.44,8.14,23.1,12.75,7,5.68,14.15,13,16.73,21.5,2.33,7.66,1.33,7.88-.84,23.05-1.35,9.43-3.65,22.36,2.43,28.72,13.71,14.33,15.6,19.06,26.28,28.67,11.67,10.5,10.46,33.16,4.39,46.76-3.86,8.65-10.71,17.27-12.45,26.6-2.68,14.37,9.46,26.65,13.85,39.46,3,8.73,6.56,17.92,7.51,27.17a281.58,281.58,0,0,0,38.92-40.32C679.2,459.47,695.58,421.22,682.56,389.87Z"/><circle class="cls-4" cx="613.14" cy="526.26" r="74.01"/><circle class="cls-5" cx="660.87" cy="191.14" r="29.52"/><path class="cls-6" d="M440.25,464.51h59v39.78H387.66v-189h52.59Z"/><polygon class="cls-7" points="456.37 142.99 436.87 167.06 456.37 191.14 475.88 167.06 456.37 142.99"/><polygon class="cls-8" points="228.29 436.6 208.78 460.68 228.29 484.75 247.79 460.68 228.29 436.6"/><polygon class="cls-1" points="493.13 566.26 473.62 590.33 493.13 614.41 512.63 590.33 493.13 566.26"/><path class="cls-9" d="M190,228.33c62.08,0,112.41,32.85,112.41,73.37,0,30.57-28.64,56.77-69.36,67.8.08.19.16.39.23.6,6.5,18.75,32,22.74,32,22.74s12.81,8.9-17.45,7c-22.52-1.41-43.06-17-52.1-24.88-1.91.07-3.83.1-5.77.1-62.07,0-112.4-32.85-112.4-73.37S127.94,228.33,190,228.33Z"/></svg>