<svg id="Capa_1" data-name="Capa 1" xmlns="http://www.w3.org/2000/svg" xmlns:xlink="http://www.w3.org/1999/xlink" viewBox="0 0 768 768"><defs><style>.cls-1{fill:#24b8d0;}.cls-2{fill:url(#Degradado_sin_nombre_12);}.cls-3{fill:#ef8128;}.cls-4{fill:url(#Degradado_sin_nombre_62);}.cls-5{fill:url(#Degradado_sin_nombre_62-2);}.cls-6{fill:url(#Degradado_sin_nombre_62-3);}.cls-7{fill:url(#Degradado_sin_nombre_62-4);}.cls-8{fill:url(#Degradado_sin_nombre_62-5);}.cls-9{fill:#fff;}.cls-10{fill:url(#Degradado_sin_nombre_13);}</style><linearGradient id="Degradado_sin_nombre_12" x1="146.77" y1="303.21" x2="144.29" y2="442.27" gradientUnits="userSpaceOnUse"><stop offset="0.44" stop-color="#24b8d0"/><stop offset="0.71" stop-color="#f3974c"/><stop offset="0.76" stop-color="#f3934e"/><stop offset="0.81" stop-color="#f18854"/><stop offset="0.86" stop-color="#ef745d"/><stop offset="0.9" stop-color="#eb5a6a"/><stop offset="0.94" stop-color="#e84276"/></linearGradient><linearGradient id="Degradado_sin_nombre_62" x1="215.44" y1="257.76" x2="484.46" y2="578.6" gradientUnits="userSpaceOnUse"><stop offset="0" stop-color="#24b8d0"/><stop offset="0.58" stop-color="#f3974c"/><stop offset="1" stop-color="#e84276"/></linearGradient><linearGradient id="Degradado_sin_nombre_62-2" x1="396.01" y1="106.35" x2="665.03" y2="427.18" xlink:href="#Degradado_sin_nombre_62"/><linearGradient id="Degradado_sin_nombre_62-3" x1="337.08" y1="155.76" x2="606.1" y2="476.6" xlink:href="#Degradado_sin_nombre_62"/><linearGradient id="Degradado_sin_nombre_62-4" x1="288.9" y1="196.16" x2="557.92" y2="516.99" xlink:href="#Degradado_sin_nombre_62"/><linearGradient id="Degradado_sin_nombre_62-5" x1="195.61" y1="274.39" x2="464.63" y2="595.22" xlink:href="#Degradado_sin_nombre_62"/><linearGradient id="Degradado_sin_nombre_13" x1="287.3" y1="365.05" x2="282.75" y2="619.64" gradientUnits="userSpaceOnUse"><stop offset="0.44" stop-color="#24b8d0"/><stop offset="0.71" stop-color="#f3974c"/><stop offset="0.77" stop-color="#f3944e"/><stop offset="0.82" stop-color="#f18a53"/><stop offset="0.86" stop-color="#ef785b"/><stop offset="0.9" stop-color="#ec6167"/><stop offset="0.94" stop-color="#e84276"/></linearGradient></defs><path class="cls-1" d="M621.93,542.37a4.87,4.87,0,1,1,4.87,4.87,4.88,4.88,0,0,1-4.87-4.87"/><path class="cls-1" d="M204.77,542.37a4.88,4.88,0,1,1,4.88,4.87,4.89,4.89,0,0,1-4.88-4.87"/><path class="cls-1" d="M135.25,542.37a4.87,4.87,0,1,1,4.87,4.87,4.88,4.88,0,0,1-4.87-4.87"/><path class="cls-1" d="M204.77,472.55a4.88,4.88,0,1,1,4.88,4.87,4.88,4.88,0,0,1-4.88-4.87"/><path class="cls-1" d="M135.25,472.55a4.87,4.87,0,1,1,4.87,4.87,4.87,4.87,0,0,1-4.87-4.87"/><path class="cls-1" d="M204.77,402.72a4.88,4.88,0,1,1,4.88,4.88,4.88,4.88,0,0,1-4.88-4.88"/><path class="cls-1" d="M135.25,402.72a4.87,4.87,0,1,1,4.87,4.88,4.87,4.87,0,0,1-4.87-4.88"/><path class="cls-1" d="M204.77,332.9a4.88,4.88,0,1,1,4.88,4.88,4.88,4.88,0,0,1-4.88-4.88"/><path class="cls-1" d="M135.25,332.9a4.87,4.87,0,1,1,4.87,4.88,4.87,4.87,0,0,1-4.87-4.88"/><path class="cls-1" d="M621.93,263.08A4.87,4.87,0,1,1,626.8,268a4.87,4.87,0,0,1-4.87-4.87"/><path class="cls-1" d="M204.77,263.08a4.88,4.88,0,1,1,4.88,4.87,4.88,4.88,0,0,1-4.88-4.87"/><path class="cls-1" d="M135.25,263.08a4.87,4.87,0,1,1,4.87,4.87,4.87,4.87,0,0,1-4.87-4.87"/><path class="cls-1" d="M621.93,193.26a4.87,4.87,0,1,1,4.87,4.87,4.88,4.88,0,0,1-4.87-4.87"/><path class="cls-1" d="M274.3,193.26a4.87,4.87,0,1,1,4.87,4.87,4.88,4.88,0,0,1-4.87-4.87"/><path class="cls-1" d="M204.77,193.26a4.88,4.88,0,1,1,4.88,4.87,4.89,4.89,0,0,1-4.88-4.87"/><path class="cls-1" d="M135.25,193.26a4.87,4.87,0,1,1,4.87,4.87,4.88,4.88,0,0,1-4.87-4.87"/><circle class="cls-2" cx="144.99" cy="402.72" r="28.17"/><polygon class="cls-3" points="209.65 169.18 190.14 193.26 209.65 217.33 229.15 193.26 209.65 169.18"/><path class="cls-4" d="M509.63,563.6l-1-2.28c-.08-.2-.17-.4-.25-.59l-.88-2.05c-.11-.27-.22-.54-.34-.8-.26-.64-.53-1.27-.79-1.9L506,555c-.24-.6-.49-1.19-.74-1.79-.14-.33-.28-.67-.41-1-.24-.57-.47-1.14-.7-1.7-.14-.36-.29-.72-.43-1.07l-.66-1.64c-.15-.37-.29-.74-.44-1.1-.21-.53-.41-1.06-.62-1.58s-.29-.76-.44-1.13-.4-1-.59-1.53l-.44-1.14L500,540c-19.37,4.86-39.62,6.53-57.33,8.56l-6.86.84-.45-.52c-6.63,1-13.42,2.26-20.35,4,10.24,3.71,22.35,8.71,36.35,19.59,6.54,5.08,13.53,11.2,20.54,17.51a299.44,299.44,0,0,0,35.87-7.31c3.16-.85,6.24-1.74,9.25-2.65-2.54-5.48-5-10.94-7.34-16.31Z"/><path class="cls-5" d="M539.19,297.7c13.67,4.79,29.52,10.93,48.89,19.32,18.57,3.71,31.77,24.28,49.28,45.37q-.5-3.3-1-6.51c-9.93-65-46.94-143-117.94-167.29a10.32,10.32,0,0,1-3.78,8.62,3.74,3.74,0,0,1,.29.25c3.4,3.34,3,12.29.95,16.17-3.7,6.89-19,11.53-27.15,7.5a20.68,20.68,0,0,1-8.77,4c-5.21,1-12.45,1.1-18.18-1.15a48.51,48.51,0,0,1-4.16,6.36c-3.21,4.09-8.71,18.25-13.39,22.54l-.15-.09a193.91,193.91,0,0,0,10.13,18.86l0,0a27.63,27.63,0,0,0,4.61,3.45c.12-.14.23-.28.35-.41a13.11,13.11,0,0,0,2.39,2c7.31-2.47,15.79.43,22.89,2.25,11.27,2.87,12.63,3.08,55.5,16.49Z"/><path class="cls-6" d="M641.6,398.7c-17.8-15.31-41.47-32.94-58.73-48.55,0,0-1.34-1.13-3.25-2.9-12.45-5.35-31.47-9.27-52.86-14.45l-.7,2s-11.43-2.35-28.6-6.89c4.86,27.77,6.69,66.36,42.42,122.92,1.81,2.42,3.7,4.88,5.49,7.19,10.68,13.74,12.67,28.31,10.24,40.15q1,2.43,1.94,4.88l.21.54c.4,1.05.79,2.11,1.17,3.16l.09.26c.42,1.15.82,2.31,1.22,3.47l.12.37c.35,1,.69,2.06,1,3.1.05.16.11.33.16.5.73,2.26,1.41,4.52,2.07,6.79.06.21.12.43.19.64.31,1.09.62,2.19.92,3.28v.06c.31,1.11.61,2.23.9,3.34.07.27.14.53.2.79.23.88.46,1.76.68,2.64.06.26.13.52.19.78.26,1,.52,2.08.77,3.12.08.36.17.72.25,1.07.17.7.33,1.4.5,2.11.1.46.21.92.32,1.39s.27,1.2.41,1.8c.23,1,.47,2.1.7,3.15l.15.69q1.1,5,2.14,10C637.73,515.77,645.73,453.33,641.6,398.7Z"/><path class="cls-7" d="M274.06,341.08l0,0C289,356.73,355.45,380,363.37,387.8c13.61-13.08,31.2-35.23,47.25-54.36l-1.72-1.59c12-17.22,14.62-20.68,23.81-31.56A210,210,0,0,0,408.4,273l-5.72,3.2c-9.45,3.13-36.52,10.31-39.06,7.18-1.38-3.33-1-7.35-1.59-10.84a5.09,5.09,0,0,0-3.61-4,7,7,0,0,1-.39-3.4c.2-.76.61-1.38,2.1-1.79.18-1,.27-1.38,0-1.66-3.55,1.12-4.11-2.68-4-4,2.86-3.14-.75-5-3.74-10.77,8.53-2.86,13-5.86,15.36-9l-5.11.65s1-.38,6.11-2.21c1.52-2.8,1.65-5.71,1.72-8.74.08-4.37-1.88-17.29,2.31-26.11a11.88,11.88,0,0,1,.8-1.42l-.42-.37c.37-5.88,10.48-9.95,13.94-11.19a95.17,95.17,0,0,1,11-3.11,74.83,74.83,0,0,1,14.3-2.69c6.62-1.14,14.1-2.61,20.73-2,4.76.41,8.35,2.5,12.07,4.86a40.86,40.86,0,0,1,2.15-6.3c-26.21-.66-62.06.24-97.65,6.9-40.59,7.59-76.19,30.19-98.71,62.67a136.79,136.79,0,0,0-24.69,78.49C238.2,329.39,263.09,328.42,274.06,341.08Z"/><path class="cls-8" d="M474.24,468.42c-15.2-31.35-28.12-71-32.41-76.85-9.43-3.32-15.73-12-15.38-16.78,0-.34.06-.71.1-1.08-20.08,18.69-43.51,38-63.18,47.24-24.8-8.54-70.37-40.81-93.52-56.27-10.07.61-32.18,2.74-33,1-.15-2.6-.57-7.07-.57-7.07s-3.91.78-6.22.16c5.92,24.49,9.91,49.84,8.81,75-1.91,43.85-.81,84.79,41.75,110.94,31,19.06,68.55,36.27,106.11,43.92-16.36-8.33-28.44-14.51-32.19-17.41,0,0-7.72-8.85-10.59-16.1h0c-3.33-7.84-2.16-10.48-2.38-17.44C347.44,524.21,412.26,495.51,474.24,468.42Z"/><path class="cls-9" d="M586,303.56a41.36,41.36,0,0,1,15.86,15.8,47.61,47.61,0,0,1-.06,45.62,41.84,41.84,0,0,1-15.92,15.79,46.18,46.18,0,0,1-44.34,0,41.62,41.62,0,0,1-16-15.79,47.32,47.32,0,0,1,0-45.62,41.65,41.65,0,0,1,16-15.8,46.41,46.41,0,0,1,44.46,0ZM549.37,326q-5.25,5.91-5.25,16.16,0,10,5.25,16t14.39,6q9,0,14.27-6t5.25-16q0-10.25-5.19-16.16t-14.33-5.92Q554.61,320.09,549.37,326Z"/><path class="cls-9" d="M497.41,299.74v41.91h-51v147.1H394.1V341.65H343.64V299.74Z"/><circle class="cls-10" cx="284.04" cy="547.24" r="51.57"/><polygon class="cls-1" points="631.67 440.6 612.17 464.67 631.67 488.75 651.18 464.67 631.67 440.6"/></svg>