<svg id="Capa_1" data-name="Capa 1" xmlns="http://www.w3.org/2000/svg" xmlns:xlink="http://www.w3.org/1999/xlink" viewBox="0 0 768 768"><defs><style>.cls-1{fill:#24b8d0;}.cls-2{fill:url(#Degradado_sin_nombre_21);}.cls-3{fill:url(#Degradado_sin_nombre_62);}.cls-4{fill:url(#Degradado_sin_nombre_62-2);}.cls-5{fill:#fff;}.cls-6{fill:#e84276;}.cls-7{fill:#ef8128;}.cls-8{fill:url(#Degradado_sin_nombre_20);}</style><linearGradient id="Degradado_sin_nombre_21" x1="127.27" y1="449.88" x2="124.99" y2="577.62" gradientUnits="userSpaceOnUse"><stop offset="0.45" stop-color="#24b8d0"/><stop offset="0.46" stop-color="#29b7cd"/><stop offset="0.55" stop-color="#7faa96"/><stop offset="0.63" stop-color="#bda06e"/><stop offset="0.69" stop-color="#e49955"/><stop offset="0.71" stop-color="#f3974c"/><stop offset="0.76" stop-color="#f2914f"/><stop offset="0.81" stop-color="#f08157"/><stop offset="0.87" stop-color="#ed6664"/><stop offset="0.94" stop-color="#e84276"/></linearGradient><linearGradient id="Degradado_sin_nombre_62" x1="101.99" y1="332.29" x2="666.56" y2="367.78" gradientUnits="userSpaceOnUse"><stop offset="0" stop-color="#24b8d0"/><stop offset="0.58" stop-color="#f3974c"/><stop offset="1" stop-color="#e84276"/></linearGradient><linearGradient id="Degradado_sin_nombre_62-2" x1="99.47" y1="372.31" x2="664.04" y2="407.8" xlink:href="#Degradado_sin_nombre_62"/><linearGradient id="Degradado_sin_nombre_20" x1="5634.29" y1="5121.91" x2="5630.49" y2="5334.81" gradientTransform="translate(-3281.66 6934.98) rotate(-103.01)" gradientUnits="userSpaceOnUse"><stop offset="0.44" stop-color="#24b8d0"/><stop offset="0.51" stop-color="#6cada2"/><stop offset="0.57" stop-color="#a6a37d"/><stop offset="0.62" stop-color="#d09d63"/><stop offset="0.66" stop-color="#e99952"/><stop offset="0.69" stop-color="#f3974c"/><stop offset="0.74" stop-color="#f2924e"/><stop offset="0.79" stop-color="#f18555"/><stop offset="0.85" stop-color="#ee6f60"/><stop offset="0.91" stop-color="#ea506f"/><stop offset="0.94" stop-color="#e84276"/></linearGradient></defs><path class="cls-1" d="M602.57,539.62a4.88,4.88,0,1,1,4.88,4.87,4.87,4.87,0,0,1-4.88-4.87"/><path class="cls-1" d="M533.05,539.62a4.87,4.87,0,1,1,4.87,4.87,4.87,4.87,0,0,1-4.87-4.87"/><path class="cls-1" d="M394,539.62a4.87,4.87,0,1,1,4.87,4.87,4.87,4.87,0,0,1-4.87-4.87"/><path class="cls-1" d="M185.42,539.62a4.87,4.87,0,1,1,4.87,4.87,4.87,4.87,0,0,1-4.87-4.87"/><path class="cls-1" d="M602.57,469.8a4.88,4.88,0,1,1,4.88,4.87,4.87,4.87,0,0,1-4.88-4.87"/><path class="cls-1" d="M185.42,469.8a4.87,4.87,0,1,1,4.87,4.87,4.87,4.87,0,0,1-4.87-4.87"/><path class="cls-1" d="M115.89,469.8a4.88,4.88,0,1,1,4.88,4.87,4.88,4.88,0,0,1-4.88-4.87"/><path class="cls-1" d="M185.42,400a4.87,4.87,0,1,1,4.87,4.87,4.88,4.88,0,0,1-4.87-4.87"/><path class="cls-1" d="M115.89,400a4.88,4.88,0,1,1,4.88,4.87,4.89,4.89,0,0,1-4.88-4.87"/><path class="cls-1" d="M185.42,330.16a4.87,4.87,0,1,1,4.87,4.87,4.87,4.87,0,0,1-4.87-4.87"/><path class="cls-1" d="M115.89,330.16a4.88,4.88,0,1,1,4.88,4.87,4.88,4.88,0,0,1-4.88-4.87"/><path class="cls-1" d="M115.89,260.33a4.88,4.88,0,1,1,4.88,4.88,4.88,4.88,0,0,1-4.88-4.88"/><path class="cls-1" d="M602.57,190.51a4.88,4.88,0,1,1,4.88,4.88,4.87,4.87,0,0,1-4.88-4.88"/><path class="cls-1" d="M533.05,190.51a4.87,4.87,0,1,1,4.87,4.88,4.87,4.87,0,0,1-4.87-4.88"/><path class="cls-1" d="M463.52,190.51a4.88,4.88,0,1,1,4.88,4.88,4.87,4.87,0,0,1-4.88-4.88"/><path class="cls-1" d="M394,190.51a4.87,4.87,0,1,1,4.87,4.88,4.87,4.87,0,0,1-4.87-4.88"/><path class="cls-1" d="M324.47,190.51a4.87,4.87,0,1,1,4.87,4.88,4.87,4.87,0,0,1-4.87-4.88"/><path class="cls-1" d="M254.94,190.51a4.88,4.88,0,1,1,4.88,4.88,4.88,4.88,0,0,1-4.88-4.88"/><path class="cls-1" d="M185.42,190.51a4.87,4.87,0,1,1,4.87,4.88,4.87,4.87,0,0,1-4.87-4.88"/><path class="cls-1" d="M115.89,190.51a4.88,4.88,0,1,1,4.88,4.88,4.88,4.88,0,0,1-4.88-4.88"/><circle class="cls-2" cx="125.64" cy="541.29" r="25.88"/><path class="cls-3" d="M238,404.16s-17.53-56.76,30.09-88.28c0,0-16.4-37.69,29.51-64.14,0,0,.94-8.58,9.73-18.24-27.71,10.36-54.32,23-78.27,37.87C203,287.53,177,308.1,160.17,333.14c-21.63,32.19-26,80.33,13.68,101.43,16.07,8.54,35,11.88,52.8,17.25C223.9,426.78,229.32,408.79,238,404.16Z"/><path class="cls-4" d="M605.44,279.19c-32.94-51.25-92.31-78-154.54-76.76a289.42,289.42,0,0,0-41.19,3.88c-17.09,2.8-34.44,6.51-51.72,11.09a14,14,0,0,1,5.68,7.91s17.57-4.86,17.57,26.74V494.88s6.24,20.1-26.5,19.78c0,0,2,31.61-35.52,29.54a139.08,139.08,0,0,1-21.6-2.88,66.76,66.76,0,0,0,8.21,11.79c13.82,15.75,34.83,25.08,56,28,26.68,3.7,55.89-1.21,80.89-10.35,25.38-9.27,48.76-22.81,71.09-37.47,42.57-27.94,83.27-62.11,102.51-108.72C636,377,633.8,323.31,605.44,279.19ZM545.9,473C536.54,508.85,515,509.71,515,509.71c10.7,16.08-20.2,32.41-57.71,34.49s-35.53-29.54-35.53-29.54c-32.73.32-26.49-19.78-26.49-19.78V252.05c0-31.6,17.57-26.74,17.57-26.74,2.8-10.39,17.34-16.69,40-4.31,24.11,13.18,26,30.74,26,30.74,45.91,26.45,29.51,64.14,29.51,64.14,47.62,31.52,30.09,88.28,30.09,88.28C549.51,410,555.27,437.21,545.9,473Z"/><path class="cls-5" d="M471.51,486H418.92L349.5,380.55V486H296.91V297.26H349.5L418.92,404V297.26h52.59Z"/><path class="cls-5" d="M515.82,353.93v28.91h-24V296.49h35.86q15.6,0,23.84,7.86t8.23,21A29.19,29.19,0,0,1,556.07,340a25.43,25.43,0,0,1-10.91,10.18q-7.26,3.74-17.5,3.72Zm19.64-28.54q0-9.51-10.49-9.51h-9.15V335H525Q535.46,335,535.46,325.39Z"/><polygon class="cls-6" points="264.59 418.63 245.08 442.71 264.59 466.78 284.09 442.71 264.59 418.63"/><polygon class="cls-1" points="228.37 461.93 208.87 486 228.37 510.08 247.88 486 228.37 461.93"/><polygon class="cls-7" points="261.86 502.06 242.35 526.13 261.86 550.21 281.36 526.13 261.86 502.06"/><polygon class="cls-7" points="504.09 418.63 523.6 442.71 504.09 466.78 484.59 442.71 504.09 418.63"/><polygon class="cls-1" points="540.31 461.93 559.82 486 540.31 510.08 520.81 486 540.31 461.93"/><polygon class="cls-6" points="506.82 502.06 526.33 526.13 506.82 550.21 487.32 526.13 506.82 502.06"/><polygon class="cls-1" points="197.6 232.89 178.1 256.97 197.6 281.04 217.11 256.97 197.6 232.89"/><polygon class="cls-7" points="122.04 303.53 102.53 327.6 122.04 351.68 141.54 327.6 122.04 303.53"/><polygon class="cls-6" points="648.73 418.63 629.23 442.71 648.73 466.78 668.24 442.71 648.73 418.63"/><circle class="cls-8" cx="588.95" cy="260.33" r="43.13"/></svg>