<svg id="Capa_1" data-name="Capa 1" xmlns="http://www.w3.org/2000/svg" xmlns:xlink="http://www.w3.org/1999/xlink" viewBox="0 0 768 768"><defs><style>.cls-1{fill:#24b8d0;}.cls-2{fill:url(#Degradado_sin_nombre_62);}.cls-3{fill:url(#Degradado_sin_nombre_62-2);}.cls-4{fill:#fbd5b5;}.cls-5{fill:#ef8128;}.cls-6{fill:url(#Degradado_sin_nombre_62-3);}.cls-7{fill:#fff;}.cls-8{fill:url(#Degradado_sin_nombre_62-4);}.cls-9{fill:url(#Degradado_sin_nombre_62-5);}.cls-10{fill:url(#Degradado_sin_nombre_19);}.cls-11{fill:#e84276;}</style><linearGradient id="Degradado_sin_nombre_62" x1="163.4" y1="225.68" x2="158.45" y2="502.61" gradientUnits="userSpaceOnUse"><stop offset="0" stop-color="#24b8d0"/><stop offset="0.58" stop-color="#f3974c"/><stop offset="1" stop-color="#e84276"/></linearGradient><linearGradient id="Degradado_sin_nombre_62-2" x1="230.19" y1="129.05" x2="225.24" y2="405.98" xlink:href="#Degradado_sin_nombre_62"/><linearGradient id="Degradado_sin_nombre_62-3" x1="-1751.78" y1="354.99" x2="-1594.41" y2="147.35" gradientTransform="matrix(-1, 0, 0, 1, -1315.26, 0)" xlink:href="#Degradado_sin_nombre_62"/><linearGradient id="Degradado_sin_nombre_62-4" x1="212.37" y1="240.48" x2="356.94" y2="637.4" xlink:href="#Degradado_sin_nombre_62"/><linearGradient id="Degradado_sin_nombre_62-5" x1="421.46" y1="108.1" x2="625.39" y2="667.98" xlink:href="#Degradado_sin_nombre_62"/><linearGradient id="Degradado_sin_nombre_19" x1="435.35" y1="461.47" x2="432.19" y2="638.38" gradientUnits="userSpaceOnUse"><stop offset="0.43" stop-color="#24b8d0"/><stop offset="0.54" stop-color="#7aaa99"/><stop offset="0.66" stop-color="#d19c62"/><stop offset="0.71" stop-color="#f3974c"/><stop offset="0.99" stop-color="#e84276"/></linearGradient></defs><path class="cls-1" d="M219.64,523.17a4.87,4.87,0,1,1,4.87,4.88,4.87,4.87,0,0,1-4.87-4.88"/><path class="cls-1" d="M150.11,523.17a4.88,4.88,0,1,1,4.88,4.88,4.88,4.88,0,0,1-4.88-4.88"/><path class="cls-1" d="M80.59,523.17a4.87,4.87,0,1,1,4.87,4.88,4.87,4.87,0,0,1-4.87-4.88"/><path class="cls-1" d="M219.64,453.35a4.87,4.87,0,1,1,4.87,4.88,4.87,4.87,0,0,1-4.87-4.88"/><path class="cls-1" d="M150.11,453.35a4.88,4.88,0,1,1,4.88,4.88,4.88,4.88,0,0,1-4.88-4.88"/><path class="cls-1" d="M80.59,453.35a4.87,4.87,0,1,1,4.87,4.88,4.87,4.87,0,0,1-4.87-4.88"/><path class="cls-1" d="M219.64,383.53a4.87,4.87,0,1,1,4.87,4.87,4.87,4.87,0,0,1-4.87-4.87"/><path class="cls-1" d="M150.11,383.53A4.88,4.88,0,1,1,155,388.4a4.88,4.88,0,0,1-4.88-4.87"/><path class="cls-1" d="M80.59,383.53a4.87,4.87,0,1,1,4.87,4.87,4.87,4.87,0,0,1-4.87-4.87"/><path class="cls-1" d="M219.64,313.71a4.87,4.87,0,1,1,4.87,4.87,4.87,4.87,0,0,1-4.87-4.87"/><path class="cls-1" d="M150.11,313.71a4.88,4.88,0,1,1,4.88,4.87,4.88,4.88,0,0,1-4.88-4.87"/><path class="cls-1" d="M80.59,313.71a4.87,4.87,0,1,1,4.87,4.87,4.87,4.87,0,0,1-4.87-4.87"/><path class="cls-1" d="M219.64,243.89a4.87,4.87,0,1,1,4.87,4.87,4.88,4.88,0,0,1-4.87-4.87"/><path class="cls-1" d="M150.11,243.89a4.88,4.88,0,1,1,4.88,4.87,4.89,4.89,0,0,1-4.88-4.87"/><path class="cls-1" d="M80.59,243.89a4.87,4.87,0,1,1,4.87,4.87,4.88,4.88,0,0,1-4.87-4.87"/><path class="cls-1" d="M567.27,174.07a4.87,4.87,0,1,1,4.87,4.87,4.87,4.87,0,0,1-4.87-4.87"/><path class="cls-1" d="M497.74,174.07a4.88,4.88,0,1,1,4.87,4.87,4.88,4.88,0,0,1-4.87-4.87"/><path class="cls-1" d="M428.22,174.07a4.87,4.87,0,1,1,4.87,4.87,4.87,4.87,0,0,1-4.87-4.87"/><path class="cls-1" d="M358.69,174.07a4.87,4.87,0,1,1,4.87,4.87,4.87,4.87,0,0,1-4.87-4.87"/><path class="cls-1" d="M289.17,174.07a4.87,4.87,0,1,1,4.87,4.87,4.87,4.87,0,0,1-4.87-4.87"/><path class="cls-1" d="M219.64,174.07a4.87,4.87,0,1,1,4.87,4.87,4.87,4.87,0,0,1-4.87-4.87"/><path class="cls-1" d="M150.11,174.07a4.88,4.88,0,1,1,4.88,4.87,4.88,4.88,0,0,1-4.88-4.87"/><path class="cls-1" d="M80.59,174.07a4.87,4.87,0,1,1,4.87,4.87,4.87,4.87,0,0,1-4.87-4.87"/><circle class="cls-2" cx="159.86" cy="423.86" r="56.1"/><circle class="cls-3" cx="229.38" cy="174.07" r="21.63"/><polygon class="cls-4" points="150.11 508.85 130.61 532.92 150.11 557 169.62 532.92 150.11 508.85"/><polygon class="cls-5" points="150.11 214.94 130.61 239.01 150.11 263.09 169.62 239.01 150.11 214.94"/><path class="cls-6" d="M474.31,330.71c16.34-3.51,21.27,3,34.52-1.92,16-5.92,27.88-21.89,29.88-37.86,2.84-22.71-15-39.56-27.3-51.12-28.12-26.5-62.31-32.61-72.27-34.26-13.54-2.24-71.34-9.94-117.17,28.18-31.8,26.46-39.56,59.86-41.72,69.83-3.14,14.5-12.95,59.76,12.65,77.5,15.17,10.51,39.54,9.25,55,.35,11.41-6.56,9.05-11.28,20.3-17.77,22.45-12.95,38.14,3.4,64.69-6.71C454.14,348.84,452.19,335.46,474.31,330.71Z"/><path class="cls-7" d="M518,484H465.35L395.86,378.45V484H343.21v-189h52.65L465.35,402V295.06H518Z"/><path class="cls-8" d="M279.56,563.7h-.06l19.77-102.38c3.92-23-3.82-46.9-20.7-64.13a57.59,57.59,0,0,1-16.38-34.4c-2-20-1.78-52.55,11.61-92.37a114.35,114.35,0,0,1,9.92-21.66c-19.08,2.91-40.18-12.61-57.07-1.42-30.46,20.19-24.9,112.57,19.64,170,13.4,17.26,24.59,24,29.55,43.5,10.64,41.92-26.77,66.86-19.65,87.59,2.45,7.14,10.31,14.11,22.2,20.29Z"/><path class="cls-9" d="M629.49,262c-74.59-129.86-280.1-139.43-314-91-9.53,13.65-6,32.65-7.72,48.89,26-22.7,62-34.64,99.58-30.44a353.09,353.09,0,0,1,105.34,29c22.61,10.13,38.27,30.24,40.76,53.49,1.16,10.82,3.31,22.83,7.23,33.52,4.94,13.48,7.09,22.73,8,28.73a15.18,15.18,0,0,1-6.12,14.33,10.9,10.9,0,0,0-2.78,14.69l34,55.39v1.77c0,5.47-4.7,9.83-10.74,10l-20.21.48.79,19.32a7.71,7.71,0,0,1-6.5,7.74l-4.73,1,4.32,3.33c3.51,2.71,4.44,7.27,2.17,10.7l-6.1,9.19a11.41,11.41,0,0,0,1,13.65c5.56,6.8,6.7,15.64,3,22.92l-1.71,3.3c-7.85,15.23-26.4,22.81-44.74,18.34-20.59-5-46.66-12.45-64.38-21.39-5-2.53-10.76.58-10.76,5.75V571.4a143.28,143.28,0,0,0,10.64,16.74c64.71-8.77,131-36.09,171.9-94.17C663.85,428.44,670.77,333.82,629.49,262Z"/><circle class="cls-10" cx="433.09" cy="588.07" r="35.84"/><polygon class="cls-11" points="667.91 379.62 648.4 403.7 667.91 427.77 687.41 403.7 667.91 379.62"/></svg>