<svg id="Capa_1" data-name="Capa 1" xmlns="http://www.w3.org/2000/svg" xmlns:xlink="http://www.w3.org/1999/xlink" viewBox="0 0 768 768"><defs><style>.cls-1{fill:#24b8d0;}.cls-2{fill:url(#Degradado_sin_nombre_62);}.cls-3{fill:url(#Degradado_sin_nombre_62-2);}.cls-4{fill:url(#Degradado_sin_nombre_62-3);}.cls-5{fill:url(#Degradado_sin_nombre_62-4);}.cls-6{fill:url(#Degradado_sin_nombre_9);}.cls-7{fill:url(#Degradado_sin_nombre_11);}.cls-8{fill:#ef8128;}.cls-9{fill:#e84276;}.cls-10{fill:#fff;}</style><linearGradient id="Degradado_sin_nombre_62" x1="390.23" y1="198.3" x2="390.29" y2="198.52" gradientUnits="userSpaceOnUse"><stop offset="0" stop-color="#24b8d0"/><stop offset="0.58" stop-color="#f3974c"/><stop offset="1" stop-color="#e84276"/></linearGradient><linearGradient id="Degradado_sin_nombre_62-2" x1="478.37" y1="78.4" x2="694.19" y2="520.85" xlink:href="#Degradado_sin_nombre_62"/><linearGradient id="Degradado_sin_nombre_62-3" x1="415.72" y1="108.96" x2="631.55" y2="551.41" xlink:href="#Degradado_sin_nombre_62"/><linearGradient id="Degradado_sin_nombre_62-4" x1="213" y1="207.85" x2="428.83" y2="650.3" xlink:href="#Degradado_sin_nombre_62"/><linearGradient id="Degradado_sin_nombre_9" x1="308.1" y1="257.24" x2="301.31" y2="637.41" gradientUnits="userSpaceOnUse"><stop offset="0.48" stop-color="#24b8d0"/><stop offset="0.54" stop-color="#6caca2"/><stop offset="0.6" stop-color="#a6a37d"/><stop offset="0.65" stop-color="#d09d62"/><stop offset="0.69" stop-color="#ea9952"/><stop offset="0.71" stop-color="#f3974c"/><stop offset="0.76" stop-color="#f2934e"/><stop offset="0.81" stop-color="#f18654"/><stop offset="0.86" stop-color="#ee715f"/><stop offset="0.91" stop-color="#ea536d"/><stop offset="0.94" stop-color="#e84276"/></linearGradient><linearGradient id="Degradado_sin_nombre_11" x1="534.52" y1="432.16" x2="530.44" y2="660.22" gradientUnits="userSpaceOnUse"><stop offset="0.43" stop-color="#24b8d0"/><stop offset="0.47" stop-color="#47b2ba"/><stop offset="0.57" stop-color="#90a78b"/><stop offset="0.65" stop-color="#c69e69"/><stop offset="0.71" stop-color="#e79954"/><stop offset="0.74" stop-color="#f3974c"/><stop offset="0.78" stop-color="#f2924f"/><stop offset="0.84" stop-color="#f08256"/><stop offset="0.89" stop-color="#ed6963"/><stop offset="0.95" stop-color="#e94674"/><stop offset="0.96" stop-color="#e84276"/></linearGradient></defs><path class="cls-1" d="M603,538a4.87,4.87,0,1,1,4.88,4.88A4.87,4.87,0,0,1,603,538"/><path class="cls-1" d="M185.84,538a4.87,4.87,0,1,1,4.87,4.88,4.87,4.87,0,0,1-4.87-4.88"/><path class="cls-1" d="M116.31,538a4.88,4.88,0,1,1,4.88,4.88,4.88,4.88,0,0,1-4.88-4.88"/><path class="cls-1" d="M603,468.17a4.87,4.87,0,1,1,4.88,4.87,4.87,4.87,0,0,1-4.88-4.87"/><path class="cls-1" d="M185.84,468.17a4.87,4.87,0,1,1,4.87,4.87,4.87,4.87,0,0,1-4.87-4.87"/><path class="cls-1" d="M116.31,468.17a4.88,4.88,0,1,1,4.88,4.87,4.88,4.88,0,0,1-4.88-4.87"/><path class="cls-1" d="M603,398.35a4.87,4.87,0,1,1,4.88,4.87,4.87,4.87,0,0,1-4.88-4.87"/><path class="cls-1" d="M185.84,398.35a4.87,4.87,0,1,1,4.87,4.87,4.87,4.87,0,0,1-4.87-4.87"/><path class="cls-1" d="M116.31,398.35a4.88,4.88,0,1,1,4.88,4.87,4.88,4.88,0,0,1-4.88-4.87"/><path class="cls-1" d="M603,328.53a4.87,4.87,0,1,1,4.88,4.87,4.88,4.88,0,0,1-4.88-4.87"/><path class="cls-1" d="M185.84,328.53a4.87,4.87,0,1,1,4.87,4.87,4.88,4.88,0,0,1-4.87-4.87"/><path class="cls-1" d="M116.31,328.53a4.88,4.88,0,1,1,4.88,4.87,4.89,4.89,0,0,1-4.88-4.87"/><path class="cls-1" d="M603,258.71a4.87,4.87,0,1,1,4.88,4.87,4.87,4.87,0,0,1-4.88-4.87"/><path class="cls-1" d="M185.84,258.71a4.87,4.87,0,1,1,4.87,4.87,4.87,4.87,0,0,1-4.87-4.87"/><path class="cls-1" d="M116.31,258.71a4.88,4.88,0,1,1,4.88,4.87,4.88,4.88,0,0,1-4.88-4.87"/><path class="cls-1" d="M603,188.88a4.87,4.87,0,1,1,4.88,4.88,4.87,4.87,0,0,1-4.88-4.88"/><path class="cls-1" d="M185.84,188.88a4.87,4.87,0,1,1,4.87,4.88,4.87,4.87,0,0,1-4.87-4.88"/><path class="cls-1" d="M116.31,188.88a4.88,4.88,0,1,1,4.88,4.88,4.88,4.88,0,0,1-4.88-4.88"/><path class="cls-2" d="M389.37,198.79c.59-.23,1.19-.48,1.79-.73l-1.86.51A1.42,1.42,0,0,1,389.37,198.79Z"/><path class="cls-3" d="M624.68,247.91c-13.15-9.19-31.23-6.36-47.12-7.59.57,5.68.15,12.13-3.3,16.7-2.06,2.73,3.36,22.68,3.36,22.68a6.37,6.37,0,0,1-7.4,3.81c-5.61-1.08-4.37,7.38-4.37,7.38s-1.1,2.64-12.29-.82c-1.84.06,8.54,4.06,9.6,5.3,0,0-.07,3.55-3.09,5s-4,10.28-6.55,12.49c-3.44,3-14.9-1.1-23.66-4.92l-1.47,8-.43,2.65a8,8,0,0,0,5.18,8.85l10.17,3.7,32.06,9.26s45.59,12.38,55.2,56c2.1,9.49,4.24,20.26,6.34,31.51C662.14,349.36,653.71,268.19,624.68,247.91Z"/><path class="cls-4" d="M545.65,175.71c2,.85,3.82,1.68,5.61,2.52.87-7.1.35-13.94-3.8-20.2-15.45-23.31-72.71-25.75-124.81-6l.34.44h0a46.5,46.5,0,0,1,5.11,7s0,.41,0,1.16c3.6,6.75,7.79,16.76,7.56,26.18-.39,16.12-8.77,22.65-4.71,34.35.93,2.68,2.45,6.76,3.36,9.07,1.07,2.76,2.34,6.82-5.94,7,0,0-4.43,1.3-2.21,5.21s1.56,2.86,1.56,2.86-2.34,6.77-7.55,5.73c0,0,3,7.42-1.56,8.21-4,.67-4.29.47-4.3.4l-.52,6.5s-2.22,10.81-14.33,7c0,0-1.71-.77-4.38-2.12q-1.46,5-3.38,10.12a132,132,0,0,0,28.12,11.49c19,5.47,32.14,14.7,41.76,25.38,3.19-2,6.14-4.21,7.81-6.54,3.19-4.46,8.51-22,12-34.14a70,70,0,0,1-9.05-1.85c-1.94-2.86,10.18-11.93,2.25-28.85-6.41-13.69-6.06-31.38,10.38-43.89,3.21-11.66,9.76-21.26,21.69-20C550,187.41,545.65,175.71,545.65,175.71Z"/><path class="cls-5" d="M243,187.9c-24,8.23-46,76.59-43.27,155a60.3,60.3,0,0,1,7.54-6.79c7.2-13.72,16.28-24.64,29.87-33.86a76,76,0,0,0,2.25-17.63c1.39-61.29,43.65-28.7,51-80.31C270.84,196.45,256.1,183.41,243,187.9Z"/><circle class="cls-6" cx="303.24" cy="529.3" r="77.01"/><circle class="cls-7" cx="531.6" cy="595.36" r="46.2"/><polygon class="cls-8" points="325.23 126.44 305.72 150.52 325.23 174.59 344.74 150.52 325.23 126.44"/><polygon class="cls-9" points="135.64 374.27 116.13 398.35 135.64 422.42 155.14 398.35 135.64 374.27"/><polygon class="cls-1" points="612.68 453.72 593.18 477.79 612.68 501.87 632.19 477.79 612.68 453.72"/><path class="cls-10" d="M500,295.36v41.91H449v147.1H396.67V337.27H346.21V295.36Z"/></svg>