<svg id="Capa_1" data-name="Capa 1" xmlns="http://www.w3.org/2000/svg" xmlns:xlink="http://www.w3.org/1999/xlink" viewBox="0 0 768 768"><defs><style>.cls-1{fill:#24b8d0;}.cls-2{fill:url(#Degradado_sin_nombre_15);}.cls-3{fill:#e84276;}.cls-4{fill:url(#Degradado_sin_nombre_62);}.cls-5{fill:url(#Degradado_sin_nombre_62-2);}.cls-6{fill:url(#Degradado_sin_nombre_62-3);}.cls-7{fill:url(#Degradado_sin_nombre_62-4);}.cls-8{fill:#fff;}.cls-9{fill:url(#Degradado_sin_nombre_23);}.cls-10{fill:#ef8128;}</style><linearGradient id="Degradado_sin_nombre_15" x1="251.41" y1="93.71" x2="248.89" y2="234.7" gradientUnits="userSpaceOnUse"><stop offset="0.43" stop-color="#24b8d0"/><stop offset="0.5" stop-color="#66ada6"/><stop offset="0.58" stop-color="#a2a47f"/><stop offset="0.64" stop-color="#ce9d64"/><stop offset="0.69" stop-color="#e99952"/><stop offset="0.71" stop-color="#f3974c"/><stop offset="0.78" stop-color="#f18953"/><stop offset="0.9" stop-color="#ec6366"/><stop offset="1" stop-color="#e84276"/></linearGradient><linearGradient id="Degradado_sin_nombre_62" x1="341.61" y1="118.3" x2="241.28" y2="535.18" gradientUnits="userSpaceOnUse"><stop offset="0" stop-color="#24b8d0"/><stop offset="0.58" stop-color="#f3974c"/><stop offset="1" stop-color="#e84276"/></linearGradient><linearGradient id="Degradado_sin_nombre_62-2" x1="558.97" y1="170.61" x2="458.64" y2="587.49" xlink:href="#Degradado_sin_nombre_62"/><linearGradient id="Degradado_sin_nombre_62-3" x1="622.41" y1="185.88" x2="522.08" y2="602.76" xlink:href="#Degradado_sin_nombre_62"/><linearGradient id="Degradado_sin_nombre_62-4" x1="351.83" y1="120.77" x2="251.5" y2="537.64" xlink:href="#Degradado_sin_nombre_62"/><linearGradient id="Degradado_sin_nombre_23" x1="548.62" y1="403.13" x2="681.09" y2="475.39" gradientUnits="userSpaceOnUse"><stop offset="0.08" stop-color="#24b8d0"/><stop offset="0.12" stop-color="#48b2b9"/><stop offset="0.2" stop-color="#7caa98"/><stop offset="0.27" stop-color="#a6a37d"/><stop offset="0.35" stop-color="#c89e68"/><stop offset="0.41" stop-color="#e09a58"/><stop offset="0.48" stop-color="#ee984f"/><stop offset="0.53" stop-color="#f3974c"/><stop offset="0.62" stop-color="#f2934e"/><stop offset="0.71" stop-color="#f18654"/><stop offset="0.8" stop-color="#ee715f"/><stop offset="0.89" stop-color="#ea546d"/><stop offset="0.94" stop-color="#e84276"/></linearGradient></defs><path class="cls-1" d="M584.11,546.11A4.87,4.87,0,1,1,589,551a4.87,4.87,0,0,1-4.87-4.88"/><path class="cls-1" d="M167,546.11a4.88,4.88,0,1,1,4.88,4.88,4.88,4.88,0,0,1-4.88-4.88"/><path class="cls-1" d="M97.43,546.11A4.87,4.87,0,1,1,102.3,551a4.87,4.87,0,0,1-4.87-4.88"/><path class="cls-1" d="M167,476.29a4.88,4.88,0,1,1,4.88,4.88,4.88,4.88,0,0,1-4.88-4.88"/><path class="cls-1" d="M167,406.47a4.88,4.88,0,1,1,4.88,4.87,4.88,4.88,0,0,1-4.88-4.87"/><path class="cls-1" d="M97.43,406.47a4.87,4.87,0,1,1,4.87,4.87,4.87,4.87,0,0,1-4.87-4.87"/><path class="cls-1" d="M167,336.65a4.88,4.88,0,1,1,4.88,4.87,4.89,4.89,0,0,1-4.88-4.87"/><path class="cls-1" d="M97.43,336.65a4.87,4.87,0,1,1,4.87,4.87,4.88,4.88,0,0,1-4.87-4.87"/><path class="cls-1" d="M167,266.83a4.88,4.88,0,1,1,4.88,4.87,4.89,4.89,0,0,1-4.88-4.87"/><path class="cls-1" d="M97.43,266.83a4.87,4.87,0,1,1,4.87,4.87,4.88,4.88,0,0,1-4.87-4.87"/><path class="cls-1" d="M584.11,197a4.87,4.87,0,1,1,4.87,4.88,4.87,4.87,0,0,1-4.87-4.88"/><path class="cls-1" d="M306,197a4.87,4.87,0,1,1,4.87,4.88A4.87,4.87,0,0,1,306,197"/><path class="cls-1" d="M167,197a4.88,4.88,0,1,1,4.88,4.88A4.88,4.88,0,0,1,167,197"/><path class="cls-1" d="M97.43,197a4.87,4.87,0,1,1,4.87,4.88A4.87,4.87,0,0,1,97.43,197"/><circle class="cls-2" cx="249.61" cy="194.61" r="28.56"/><polygon class="cls-3" points="105.69 444.35 125.19 468.42 105.69 492.5 86.18 468.42 105.69 444.35"/><path class="cls-4" d="M246.43,315.4c17.92.86,25.53-3.4,49.64-17s45.74-6.82,54.95-4.26,26.57-13.63,36.72-20.45,5.49-43.44,5.49-43.44v-2.84s-1.88,4.54-5.49,0-6-22.15-6.22-27.26,3.11-4,3.11-4-3.43-10.86-2.34-21.56c-16.41,15.61-27,39.57-49.74,54.81-32.38,21.66-87.9-4.54-114.69,54.4-4.72,10.4-8.45,23.58-11.32,37.89C222.85,323.2,230.6,314.65,246.43,315.4Z"/><path class="cls-5" d="M460.15,165.48c5.74,12.49,0,30.66,0,30.66s3.34-1.13,3.11,4-2.6,22.72-6.22,27.26-5.49,0-5.49,0v2.84s-4.65,36.63,5.49,43.44,27.51,23,36.71,20.45,30.86-9.37,55,4.26,31.72,17.89,49.64,17c11-.52,18.09,3.45,26.86,5.41a234.5,234.5,0,0,0-9.7-30.28c-26.72-67.14-83-115.83-156.93-128.25C459.12,163.33,459.65,164.39,460.15,165.48Z"/><path class="cls-6" d="M631.31,363.11c-6.81.28-46.57,7.1-57.08,8.23s-27.54-.56-33.78-3.69-7.67-5.11-7.67-5.11-2,0-6.82,6.53-20.72,39.76-25.27,55.37S489.9,471,490.47,482.94s9.09,27,9.37,34.36c0,0,2.39,19.59,5.17,33.22.73,3.55,2.27,11.26,4.11,21.22,75-29.77,123.54-97.26,123.54-188.93,0-6.65-.26-13.23-.74-19.72Z"/><path class="cls-7" d="M339.77,550.52c2.78-13.63,5.17-33.22,5.17-33.22.28-7.39,8.8-22.44,9.37-34.36s-5.68-42.88-10.22-58.5-20.45-48.84-25.28-55.37-6.81-6.53-6.81-6.53-1.42,2-7.67,5.11-23.28,4.83-33.79,3.69-50.26-7.95-57.07-8.23c-2.07-.09-6.9.14-12.9.49C199,380,198.36,396,198.36,409.29c0,96.19,54.11,150.24,135.88,170.26C336.68,565.86,338.86,555,339.77,550.52Z"/><path class="cls-8" d="M490,303.48V345.4H414.2V379h56.6v39.52H414.2V492.5H361.61v-189Z"/><circle class="cls-9" cx="624.19" cy="444.35" r="57.63"/><polygon class="cls-1" points="458.19 561.09 477.69 585.17 458.19 609.24 438.68 585.17 458.19 561.09"/><polygon class="cls-10" points="524.33 158.76 543.83 182.83 524.33 206.91 504.82 182.83 524.33 158.76"/></svg>