<?xml version="1.0" encoding="utf-8"?>
<!-- Generator: Adobe Illustrator 26.0.1, SVG Export Plug-In . SVG Version: 6.00 Build 0)  -->
<svg version="1.1" id="Capa_1" xmlns="http://www.w3.org/2000/svg" xmlns:xlink="http://www.w3.org/1999/xlink" x="0px" y="0px"
	 viewBox="0 0 50 50" style="enable-background:new 0 0 50 50;" xml:space="preserve">
<style type="text/css">
	.st0{fill:#FFFFFF;}
</style>
<path class="st0" d="M35.4,5.5L35.4,5.5L35.4,5.5z M21.3,44.5h6.2V27.8c0-0.8,0.6-1.4,1.4-1.4h5.7l0-5.9h-5.8
	c-0.8,0-1.4-0.6-1.4-1.4v-3.9c0-1,0.1-2.2,0.9-3c0.9-1,2.4-1.2,3.4-1.2h3.2V5.5l-4.9,0c-5.3,0-8.7,3.4-8.7,8.9V19
	c0,0.8-0.6,1.4-1.4,1.4h-4.8v5.9h4.8c0.8,0,1.4,0.6,1.4,1.4V44.5z M27.9,47.1h-7.1c-1.2,0-2.1-1-2.1-2.1V29h-4.1
	c-1.2,0-2.1-1-2.1-2.1V20c0-1.2,1-2.1,2.1-2.1h4.1v-3.4c0-3.4,1.1-6.3,3.1-8.3c2-2.1,4.9-3.2,8.2-3.2l5.4,0c1.2,0,2.1,1,2.1,2.1v6.3
	c0,1.2-1,2.1-2.1,2.1h-3.6c-1.1,0-1.4,0.2-1.4,0.3c-0.1,0.1-0.2,0.4-0.2,1.3v2.7h5c0.4,0,0.7,0.1,1.1,0.3c0.7,0.4,1.1,1.1,1.1,1.9
	v6.8c0,1.2-1,2.1-2.1,2.1h-5v15.9C30.1,46.1,29.1,47.1,27.9,47.1"/>
</svg>
