<?xml version="1.0" encoding="utf-8"?>
<!-- Generator: Adobe Illustrator 26.0.1, SVG Export Plug-In . SVG Version: 6.00 Build 0)  -->
<svg version="1.1" id="Capa_1" xmlns="http://www.w3.org/2000/svg" xmlns:xlink="http://www.w3.org/1999/xlink" x="0px" y="0px"
	 viewBox="0 0 50 50" style="enable-background:new 0 0 50 50;" xml:space="preserve">
<style type="text/css">
	.st0{fill:#FFFFFF;}
</style>
<g>
	<path class="st0" d="M44.4,35.1c0,5.1-4.2,9.3-9.3,9.3H14.9c-5.1,0-9.3-4.2-9.3-9.3V14.9c0-5.1,4.2-9.3,9.3-9.3h20.2
		c5.1,0,9.3,4.2,9.3,9.3V35.1z M35.1,3H14.9C8.3,3,3,8.3,3,14.9v20.2C3,41.7,8.3,47,14.9,47h20.2C41.7,47,47,41.7,47,35.1V14.9
		C47,8.3,41.7,3,35.1,3"/>
	<path class="st0" d="M25,34.5c-5.2,0-9.5-4.2-9.5-9.5c0-5.2,4.2-9.5,9.5-9.5s9.5,4.2,9.5,9.5C34.5,30.2,30.2,34.5,25,34.5 M25,13
		c-6.6,0-12,5.4-12,12c0,6.6,5.4,12,12,12s12-5.4,12-12C37,18.4,31.6,13,25,13"/>
	<path class="st0" d="M37.3,13.2c-0.5,0-1-0.4-1-1s0.4-1,1-1s1,0.4,1,1S37.9,13.2,37.3,13.2 M37.3,8.7c-2,0-3.6,1.6-3.6,3.6
		c0,2,1.6,3.6,3.6,3.6s3.6-1.6,3.6-3.6C40.9,10.3,39.3,8.7,37.3,8.7"/>
</g>
</svg>
