<?xml version="1.0" encoding="utf-8"?>
<!-- Generator: Adobe Illustrator 26.0.1, SVG Export Plug-In . SVG Version: 6.00 Build 0)  -->
<svg version="1.1" id="Capa_1" xmlns="http://www.w3.org/2000/svg" xmlns:xlink="http://www.w3.org/1999/xlink" x="0px" y="0px"
	 viewBox="0 0 302.6 218.9" style="enable-background:new 0 0 302.6 218.9;" xml:space="preserve">
<style type="text/css">
	.st0{fill:#FF5911;}
</style>
<g>
	<path class="st0" d="M5.4,3c0,1.6-1.3,3-3,3s-3-1.3-3-3c0-1.6,1.3-3,3-3S5.4,1.3,5.4,3"/>
</g>
<g>
	<path class="st0" d="M47.9,3c0,1.6-1.3,3-3,3s-3-1.3-3-3c0-1.6,1.3-3,3-3S47.9,1.3,47.9,3"/>
	<path class="st0" d="M90.4,3c0,1.6-1.3,3-3,3c-1.6,0-3-1.3-3-3c0-1.6,1.3-3,3-3C89.1,0,90.4,1.3,90.4,3"/>
	<path class="st0" d="M132.9,3c0,1.6-1.3,3-3,3c-1.6,0-3-1.3-3-3c0-1.6,1.3-3,3-3C131.6,0,132.9,1.3,132.9,3"/>
	<path class="st0" d="M175.4,3c0,1.6-1.3,3-3,3c-1.6,0-3-1.3-3-3c0-1.6,1.3-3,3-3C174,0,175.4,1.3,175.4,3"/>
	<path class="st0" d="M217.9,3c0,1.6-1.3,3-3,3c-1.6,0-3-1.3-3-3c0-1.6,1.3-3,3-3C216.5,0,217.9,1.3,217.9,3"/>
</g>
<g>
	<path class="st0" d="M260.4,3c0,1.6-1.3,3-3,3c-1.6,0-3-1.3-3-3c0-1.6,1.3-3,3-3C259,0,260.4,1.3,260.4,3"/>
	<path class="st0" d="M302.9,3c0,1.6-1.3,3-3,3c-1.6,0-3-1.3-3-3c0-1.6,1.3-3,3-3C301.5,0,302.9,1.3,302.9,3"/>
	<path class="st0" d="M5.4,45.6c0,1.6-1.3,3-3,3s-3-1.3-3-3c0-1.6,1.3-3,3-3S5.4,44,5.4,45.6"/>
</g>
<g>
	<path class="st0" d="M47.9,45.6c0,1.6-1.3,3-3,3s-3-1.3-3-3c0-1.6,1.3-3,3-3S47.9,44,47.9,45.6"/>
	<path class="st0" d="M90.4,45.6c0,1.6-1.3,3-3,3c-1.6,0-3-1.3-3-3c0-1.6,1.3-3,3-3C89.1,42.7,90.4,44,90.4,45.6"/>
	<path class="st0" d="M132.9,45.6c0,1.6-1.3,3-3,3c-1.6,0-3-1.3-3-3c0-1.6,1.3-3,3-3C131.6,42.7,132.9,44,132.9,45.6"/>
	<path class="st0" d="M175.4,45.6c0,1.6-1.3,3-3,3c-1.6,0-3-1.3-3-3c0-1.6,1.3-3,3-3C174,42.7,175.4,44,175.4,45.6"/>
	<path class="st0" d="M217.9,45.6c0,1.6-1.3,3-3,3c-1.6,0-3-1.3-3-3c0-1.6,1.3-3,3-3C216.5,42.7,217.9,44,217.9,45.6"/>
</g>
<g>
	<path class="st0" d="M260.4,45.6c0,1.6-1.3,3-3,3c-1.6,0-3-1.3-3-3c0-1.6,1.3-3,3-3C259,42.7,260.4,44,260.4,45.6"/>
	<path class="st0" d="M302.9,45.6c0,1.6-1.3,3-3,3c-1.6,0-3-1.3-3-3c0-1.6,1.3-3,3-3C301.5,42.7,302.9,44,302.9,45.6"/>
	<path class="st0" d="M5.4,88.3c0,1.6-1.3,3-3,3s-3-1.3-3-3c0-1.6,1.3-3,3-3S5.4,86.7,5.4,88.3"/>
</g>
<g>
	<path class="st0" d="M47.9,88.3c0,1.6-1.3,3-3,3s-3-1.3-3-3c0-1.6,1.3-3,3-3S47.9,86.7,47.9,88.3"/>
	<path class="st0" d="M90.4,88.3c0,1.6-1.3,3-3,3c-1.6,0-3-1.3-3-3c0-1.6,1.3-3,3-3C89.1,85.3,90.4,86.7,90.4,88.3"/>
	<path class="st0" d="M132.9,88.3c0,1.6-1.3,3-3,3c-1.6,0-3-1.3-3-3c0-1.6,1.3-3,3-3C131.6,85.3,132.9,86.7,132.9,88.3"/>
	<path class="st0" d="M175.4,88.3c0,1.6-1.3,3-3,3c-1.6,0-3-1.3-3-3c0-1.6,1.3-3,3-3C174,85.3,175.4,86.7,175.4,88.3"/>
	<path class="st0" d="M217.9,88.3c0,1.6-1.3,3-3,3c-1.6,0-3-1.3-3-3c0-1.6,1.3-3,3-3C216.5,85.3,217.9,86.7,217.9,88.3"/>
</g>
<g>
	<path class="st0" d="M260.4,88.3c0,1.6-1.3,3-3,3c-1.6,0-3-1.3-3-3c0-1.6,1.3-3,3-3C259,85.3,260.4,86.7,260.4,88.3"/>
	<path class="st0" d="M302.9,88.3c0,1.6-1.3,3-3,3c-1.6,0-3-1.3-3-3c0-1.6,1.3-3,3-3C301.5,85.3,302.9,86.7,302.9,88.3"/>
	<path class="st0" d="M5.4,131c0,1.6-1.3,3-3,3s-3-1.3-3-3c0-1.6,1.3-3,3-3S5.4,129.3,5.4,131"/>
</g>
<g>
	<path class="st0" d="M47.9,131c0,1.6-1.3,3-3,3s-3-1.3-3-3c0-1.6,1.3-3,3-3S47.9,129.3,47.9,131"/>
	<path class="st0" d="M90.4,131c0,1.6-1.3,3-3,3c-1.6,0-3-1.3-3-3c0-1.6,1.3-3,3-3C89.1,128,90.4,129.3,90.4,131"/>
	<path class="st0" d="M132.9,131c0,1.6-1.3,3-3,3c-1.6,0-3-1.3-3-3c0-1.6,1.3-3,3-3C131.6,128,132.9,129.3,132.9,131"/>
	<path class="st0" d="M175.4,131c0,1.6-1.3,3-3,3c-1.6,0-3-1.3-3-3c0-1.6,1.3-3,3-3C174,128,175.4,129.3,175.4,131"/>
	<path class="st0" d="M217.9,131c0,1.6-1.3,3-3,3c-1.6,0-3-1.3-3-3c0-1.6,1.3-3,3-3C216.5,128,217.9,129.3,217.9,131"/>
</g>
<g>
	<path class="st0" d="M260.4,131c0,1.6-1.3,3-3,3c-1.6,0-3-1.3-3-3c0-1.6,1.3-3,3-3C259,128,260.4,129.3,260.4,131"/>
	<path class="st0" d="M302.9,131c0,1.6-1.3,3-3,3c-1.6,0-3-1.3-3-3c0-1.6,1.3-3,3-3C301.5,128,302.9,129.3,302.9,131"/>
	<path class="st0" d="M5.4,173.7c0,1.6-1.3,3-3,3s-3-1.3-3-3c0-1.6,1.3-3,3-3S5.4,172,5.4,173.7"/>
</g>
<g>
	<path class="st0" d="M47.9,173.7c0,1.6-1.3,3-3,3s-3-1.3-3-3c0-1.6,1.3-3,3-3S47.9,172,47.9,173.7"/>
	<path class="st0" d="M90.4,173.7c0,1.6-1.3,3-3,3c-1.6,0-3-1.3-3-3c0-1.6,1.3-3,3-3C89.1,170.7,90.4,172,90.4,173.7"/>
	<path class="st0" d="M132.9,173.7c0,1.6-1.3,3-3,3c-1.6,0-3-1.3-3-3c0-1.6,1.3-3,3-3C131.6,170.7,132.9,172,132.9,173.7"/>
	<path class="st0" d="M175.4,173.7c0,1.6-1.3,3-3,3c-1.6,0-3-1.3-3-3c0-1.6,1.3-3,3-3C174,170.7,175.4,172,175.4,173.7"/>
	<path class="st0" d="M217.9,173.7c0,1.6-1.3,3-3,3c-1.6,0-3-1.3-3-3c0-1.6,1.3-3,3-3C216.5,170.7,217.9,172,217.9,173.7"/>
</g>
<g>
	<path class="st0" d="M260.4,173.7c0,1.6-1.3,3-3,3c-1.6,0-3-1.3-3-3c0-1.6,1.3-3,3-3C259,170.7,260.4,172,260.4,173.7"/>
	<path class="st0" d="M302.9,173.7c0,1.6-1.3,3-3,3c-1.6,0-3-1.3-3-3c0-1.6,1.3-3,3-3C301.5,170.7,302.9,172,302.9,173.7"/>
	<path class="st0" d="M5.4,216.3c0,1.6-1.3,3-3,3s-3-1.3-3-3c0-1.6,1.3-3,3-3S5.4,214.7,5.4,216.3"/>
	<path class="st0" d="M47.9,216.3c0,1.6-1.3,3-3,3s-3-1.3-3-3c0-1.6,1.3-3,3-3S47.9,214.7,47.9,216.3"/>
	<path class="st0" d="M90.4,216.3c0,1.6-1.3,3-3,3c-1.6,0-3-1.3-3-3c0-1.6,1.3-3,3-3C89.1,213.4,90.4,214.7,90.4,216.3"/>
	<path class="st0" d="M132.9,216.3c0,1.6-1.3,3-3,3c-1.6,0-3-1.3-3-3c0-1.6,1.3-3,3-3C131.6,213.4,132.9,214.7,132.9,216.3"/>
	<path class="st0" d="M175.4,216.3c0,1.6-1.3,3-3,3c-1.6,0-3-1.3-3-3c0-1.6,1.3-3,3-3C174,213.4,175.4,214.7,175.4,216.3"/>
	<path class="st0" d="M217.9,216.3c0,1.6-1.3,3-3,3c-1.6,0-3-1.3-3-3c0-1.6,1.3-3,3-3C216.5,213.4,217.9,214.7,217.9,216.3"/>
	<path class="st0" d="M260.4,216.3c0,1.6-1.3,3-3,3c-1.6,0-3-1.3-3-3c0-1.6,1.3-3,3-3C259,213.4,260.4,214.7,260.4,216.3"/>
	<path class="st0" d="M302.9,216.3c0,1.6-1.3,3-3,3c-1.6,0-3-1.3-3-3c0-1.6,1.3-3,3-3C301.5,213.4,302.9,214.7,302.9,216.3"/>
</g>
</svg>
