<?xml version="1.0" encoding="utf-8"?>
<!-- Generator: Adobe Illustrator 26.0.1, SVG Export Plug-In . SVG Version: 6.00 Build 0)  -->
<svg version="1.1" id="Capa_1" xmlns="http://www.w3.org/2000/svg" xmlns:xlink="http://www.w3.org/1999/xlink" x="0px" y="0px"
	 viewBox="0 0 50 50" style="enable-background:new 0 0 50 50;" xml:space="preserve">
<style type="text/css">
	.st0{fill:#FFFFFF;}
</style>
<path class="st0" d="M6.4,38.2c2.6,1.5,7.6,2.4,13.4,2.4c5.6,0,10.9-2.4,14.9-6.8c4-4.4,6.2-10.2,6.2-16.5v-0.1
	c0-0.6,0.3-1.1,0.8-1.3c1-0.5,1.8-1.5,2.4-2.6c-0.5,0.1-1.1-0.1-1.5-0.6c-0.4-0.5-0.4-1.3,0-1.8c0.2-0.3,0.4-0.6,0.6-0.9
	c-1.4,0.6-2.7,1.1-3.9,1.5c-0.4,0.1-0.9,0.1-1.3-0.1c-2-1.1-4-1.8-5.1-1.8c-4.2,0.1-7.7,3.7-7.7,8.1c0,0.5-0.2,0.9-0.6,1.2
	c-0.4,0.3-0.8,0.4-1.3,0.3c-7-1.4-11.1-3.4-15.4-7.8c-0.6,1.5-0.8,3-0.5,4.4c0.3,1.5,1.1,3,2.2,4.3c0.4,0.5,0.5,1.2,0.1,1.8
	c-0.4,0.6-1,0.8-1.7,0.7c-0.5-0.1-1-0.3-1.4-0.5c0.9,2,2.4,3.8,4.4,5.1c0.6,0.4,0.8,1.1,0.6,1.8c-0.2,0.6-0.9,1.1-1.5,1
	c-0.7-0.1-1.4-0.2-2-0.4c1.1,2.2,2.8,3.4,5.5,3.9c0.6,0.1,1.1,0.6,1.2,1.3s-0.2,1.3-0.8,1.6C11.9,37.3,9.4,38,6.4,38.2 M19.8,43.1
	c-7.3,0-13.1-1.3-15.9-3.5l-0.1,0l-0.1,0c-0.7-0.7-0.9-1.5-0.6-2.4l0-0.1c0.3-0.9,1.2-1.4,2.1-1.4c1.9,0,3.5-0.3,5-0.7
	c-2.4-1.1-4-3-5-5.8c-0.3-0.9,0-1.8,0.7-2.4c0.2-0.1,0.4-0.2,0.6-0.3c-1.3-1.5-2.3-3.2-2.8-5.1l0-0.1l0-0.1c-0.2-0.9,0.2-1.9,1-2.3
	c0.3-0.2,0.7-0.3,1-0.3c-0.4-0.8-0.6-1.6-0.8-2.5c-0.4-2.3-0.1-4.6,1.1-6.9l0.3-0.5C6.6,8.4,7,8.1,7.5,8c0.5-0.1,1,0.1,1.3,0.4
	l0.5,0.5c3.9,4.1,7.4,6,13.5,7.4c0.3-2.3,1.3-4.5,2.9-6.2c1.9-2,4.5-3.2,7.3-3.2h0c2,0,4.5,1.1,6,2c1.3-0.4,2.8-1.1,4.5-1.8
	c0.8-0.4,1.7-0.2,2.3,0.4c0.6,0.6,0.7,1.4,0.4,2.2c-0.1,0.3-0.3,0.6-0.4,1c0.2,0.1,0.4,0.2,0.6,0.4c0.5,0.5,0.7,1.3,0.5,2.1l0,0.1
	c-0.6,2-1.8,3.6-3.4,4.6C43.2,31.8,32.7,43.1,19.8,43.1"/>
</svg>
