<?xml version="1.0" encoding="utf-8"?>
<!-- Generator: Adobe Illustrator 26.0.1, SVG Export Plug-In . SVG Version: 6.00 Build 0)  -->
<svg version="1.1" id="Capa_1" xmlns="http://www.w3.org/2000/svg" xmlns:xlink="http://www.w3.org/1999/xlink" x="0px" y="0px"
	 viewBox="0 0 50 50" style="enable-background:new 0 0 50 50;" xml:space="preserve">
<style type="text/css">
	.st0{fill:#FFFFFF;}
</style>
<g>
	<path class="st0" d="M22,28.5v-7.9l7.3,4L22,28.5z M31.8,23l-9.7-5.3c-0.6-0.3-1.2-0.3-1.8,0c-0.5,0.3-0.9,0.9-0.9,1.5v10.5
		c0,0.6,0.3,1.2,0.9,1.5c0.3,0.2,0.6,0.3,0.9,0.3c0.3,0,0.6-0.1,0.8-0.2l9.7-5.2c0.6-0.3,0.9-0.9,0.9-1.6C32.7,24,32.3,23.4,31.8,23
		"/>
	<path class="st0" d="M44.4,26.7c0,3.3-0.3,6.6-0.3,6.9c-0.1,0.8-0.6,2.8-1.3,3.6c-1.1,1.2-2.2,1.3-3,1.4c-0.1,0-0.2,0-0.3,0
		c-5.6,0.4-14.1,0.5-14.4,0.5c-0.4,0-10.8-0.2-14.1-0.5c-0.2,0-0.3-0.1-0.5-0.1c-1-0.1-2.3-0.3-3.3-1.4l0,0
		c-0.7-0.7-1.1-2.5-1.2-3.5c0-0.2-0.3-3.6-0.3-6.9v-3.3c0-3.3,0.3-6.6,0.3-6.9c0.1-1,0.6-2.8,1.3-3.6c1.1-1.2,2.3-1.4,3.1-1.5
		c0.1,0,0.1,0,0.2,0c5.7-0.4,14.2-0.5,14.5-0.5c0.3,0,8.8,0.1,14.5,0.5c0.1,0,0.1,0,0.2,0c0.8,0.1,2,0.2,3.2,1.4l0,0
		c0.7,0.7,1.1,2.6,1.2,3.6c0,0.2,0.3,3.6,0.3,6.9V26.7z M46.6,16.2L46.6,16.2c0-0.4-0.4-3.5-1.9-5.1C42.9,9.2,40.9,9,40,8.9
		c-0.1,0-0.2,0-0.2,0l-0.1,0C33.9,8.4,25.1,8.4,25,8.4h0c-0.1,0-8.9,0.1-14.7,0.5l-0.1,0c-0.1,0-0.1,0-0.2,0C9,9,7.1,9.2,5.3,11.2
		c-1.5,1.6-1.9,4.7-1.9,5l0,0c0,0.1-0.3,3.7-0.3,7.2v3.3c0,3.5,0.3,7,0.3,7.2l0,0c0,0.3,0.4,3.4,1.9,5c1.7,1.8,3.8,2.1,4.9,2.2
		c0.2,0,0.3,0,0.4,0.1l0.1,0c3.4,0.3,13.9,0.5,14.3,0.5h0c0.1,0,8.9-0.1,14.7-0.5l0.1,0c0.1,0,0.2,0,0.2,0c0.9-0.1,2.9-0.3,4.7-2.2
		c1.5-1.6,1.9-4.7,1.9-5l0,0c0-0.1,0.3-3.7,0.3-7.2v-3.3C47,19.9,46.7,16.4,46.6,16.2"/>
</g>
</svg>
